<svg width="276" height="136" viewBox="0 0 276 136" fill="none" xmlns="http://www.w3.org/2000/svg">
<path d="M137.734 0C126.205 0 116.819 9.38635 116.819 20.9152C116.819 25.8125 118.554 30.5056 121.614 34.2806L123.451 36.4231L144.672 62.5416L146.509 64.7862C148.243 66.8267 149.059 69.2753 149.059 72.03C149.059 78.2536 143.958 83.3548 137.734 83.3548C131.511 83.3548 126.409 78.2536 126.409 72.03V70.3976C123.451 71.826 120.084 72.7442 116.819 73.0503C117.329 84.069 126.512 92.9452 137.734 92.9452C149.263 92.9452 158.65 83.5589 158.65 72.03C158.65 67.1328 156.915 62.4396 153.854 58.6647L152.018 56.5221L130.797 30.3016L128.96 28.159C127.328 26.1185 126.409 23.6699 126.409 21.0172C126.409 14.7937 131.511 9.69242 137.734 9.69242C143.958 9.69242 149.059 14.7937 149.059 21.0172V22.3436C151.916 20.9152 155.079 20.099 158.65 19.895C158.037 8.77419 148.855 0 137.734 0Z" fill="#EDB500"/>
<path d="M114.881 69.2753C120.594 69.1732 126.614 66.7246 130.491 62.8477C132.429 60.9092 134.164 58.8687 135.898 56.8282L129.674 49.1762C127.838 51.6249 125.9 53.8694 123.757 56.0119C122.023 57.7464 118.452 59.5828 114.677 59.5828C107.331 59.5828 101.413 53.6654 101.413 46.3195C101.413 38.9737 107.331 33.0562 114.677 33.0562C115.493 33.0562 116.309 33.1582 117.023 33.2603C115.187 30.3015 114.065 26.9347 113.758 23.4658C101.617 23.9759 91.823 33.9744 91.823 46.3195C91.823 58.8687 101.924 69.0712 114.473 69.1732H114.881V69.2753Z" fill="#00101B"/>
<path d="M161.915 23.5679H159.058C153.447 23.8739 149.059 25.9145 144.978 29.8935C143.04 31.8319 141.305 33.8725 139.571 35.913L145.795 43.5649C147.631 41.1163 149.57 38.8717 151.712 36.7292C154.365 34.0765 156.813 33.1583 160.792 33.1583C168.138 33.1583 174.056 39.0758 174.056 46.4216C174.056 53.7674 168.138 59.6849 160.792 59.6849C159.976 59.6849 159.16 59.5829 158.446 59.4809C160.282 62.4396 161.405 65.8064 161.813 69.3773C173.954 68.8672 183.748 58.8687 183.748 46.5236C183.646 34.1785 174.056 24.18 161.915 23.5679Z" fill="#00101B"/>
<path d="M0 135.387V110.289H6.73368V135.387H0Z" fill="#00101B"/>
<path d="M37.9536 135.387L21.0174 118.145V135.387H14.2837V110.289H21.6295L38.5658 127.633V110.289H45.2994V135.387H37.9536Z" fill="#00101B"/>
<path d="M59.4808 115.696V120.084H75.8048V125.389H59.4808V135.387H52.7471V110.289H76.7231V115.594H59.4808V115.696Z" fill="#00101B"/>
<path d="M105.188 117.431C104.678 117.227 104.066 116.921 103.352 116.615C102.536 116.309 101.719 116.003 100.699 115.799C99.6789 115.493 98.6586 115.289 97.5364 115.187C96.4141 114.983 95.1898 114.88 93.9655 114.88C92.9452 114.88 92.129 114.88 91.5168 114.983C90.8027 115.085 90.2925 115.085 89.7824 115.187C89.2723 115.289 88.9662 115.391 88.6601 115.493C88.354 115.595 88.15 115.799 88.048 115.901C87.946 116.003 87.8439 116.207 87.7419 116.309C87.7419 116.411 87.6399 116.615 87.6399 116.717C87.6399 117.125 87.8439 117.431 88.15 117.635C88.5581 117.941 88.9662 118.145 89.6804 118.349C90.2925 118.553 91.0067 118.757 91.925 118.962C92.7412 119.166 93.6594 119.37 94.5776 119.574C95.4958 119.778 96.5161 119.982 97.5364 120.186C98.5566 120.39 99.4748 120.696 100.495 121.002C101.413 121.308 102.332 121.716 103.148 122.124C103.964 122.532 104.678 123.043 105.392 123.553C106.004 124.063 106.515 124.777 106.923 125.491C107.331 126.205 107.433 127.022 107.433 128.042C107.433 129.266 107.229 130.286 106.821 131.103C106.413 131.919 105.8 132.735 105.086 133.245C104.372 133.857 103.556 134.367 102.638 134.673C101.719 135.082 100.699 135.286 99.6789 135.49C98.6586 135.694 97.6384 135.796 96.5161 135.898C95.4958 136 94.4756 136 93.5574 136C91.1087 136 88.7622 135.796 86.6196 135.388C84.4771 134.98 82.6406 134.469 81.0082 133.857V127.838C82.6406 128.756 84.5791 129.47 86.7216 129.98C88.8642 130.49 91.1087 130.796 93.5574 130.796C94.9857 130.796 96.21 130.694 97.0262 130.592C97.9445 130.49 98.6586 130.286 99.1688 129.98C99.6789 129.776 99.985 129.47 100.189 129.164C100.393 128.858 100.495 128.654 100.495 128.348C100.495 127.94 100.291 127.634 99.985 127.328C99.5769 127.022 99.1688 126.817 98.4546 126.511C97.8424 126.307 97.1283 126.103 96.21 125.899C95.3938 125.695 94.4756 125.491 93.5574 125.287C92.6391 125.083 91.6189 124.879 90.5986 124.675C89.5784 124.471 88.6601 124.165 87.6399 123.859C86.7216 123.553 85.8034 123.247 84.9872 122.838C84.171 122.43 83.4568 122.022 82.7427 121.41C82.0285 120.798 81.6204 120.288 81.2123 119.574C80.8042 118.859 80.7021 118.043 80.7021 117.125C80.7021 116.003 80.9062 115.085 81.3143 114.268C81.7224 113.452 82.2325 112.738 82.8447 112.228C83.4568 111.616 84.273 111.208 85.1913 110.799C86.1095 110.493 86.9257 110.187 87.9459 109.983C88.8642 109.779 89.8844 109.677 90.9047 109.575C91.925 109.473 92.8432 109.473 93.7614 109.473C94.7817 109.473 95.6999 109.473 96.7201 109.575C97.7404 109.677 98.7607 109.779 99.7809 109.983C100.801 110.187 101.719 110.391 102.638 110.595C103.556 110.799 104.474 111.106 105.188 111.31V117.431V117.431Z" fill="#EDB500"/>
<path d="M127.328 115.798V135.387H120.594V115.798H109.984V110.391H138.041V115.798H127.328Z" fill="#EDB500"/>
<path d="M174.158 122.839C174.158 124.981 173.749 126.92 172.933 128.552C172.117 130.184 170.995 131.613 169.566 132.633C168.138 133.755 166.302 134.571 164.261 135.184C162.119 135.796 159.772 136 157.221 136C154.569 136 152.222 135.694 150.182 135.184C148.039 134.571 146.305 133.755 144.774 132.633C143.244 131.511 142.122 130.184 141.305 128.552C140.489 126.92 140.081 124.981 140.081 122.839C140.081 120.696 140.489 118.757 141.305 117.125C142.122 115.493 143.244 114.064 144.774 112.942C146.305 111.82 148.039 111.004 150.182 110.391C152.324 109.779 154.671 109.575 157.221 109.575C159.874 109.575 162.221 109.881 164.261 110.391C166.302 110.902 168.138 111.82 169.566 112.942C170.995 114.064 172.219 115.391 172.933 117.125C173.749 118.86 174.158 120.696 174.158 122.839ZM167.322 122.839C167.322 121.92 167.22 121.002 166.914 120.084C166.608 119.166 166.098 118.349 165.281 117.533C164.567 116.819 163.445 116.207 162.221 115.697C160.894 115.187 159.262 114.983 157.221 114.983C155.895 114.983 154.671 115.085 153.65 115.289C152.63 115.493 151.712 115.799 150.998 116.207C150.284 116.615 149.569 117.023 149.059 117.533C148.549 118.043 148.141 118.553 147.835 119.166C147.529 119.778 147.325 120.39 147.223 121.002C147.121 121.614 147.019 122.226 147.019 122.839C147.019 123.451 147.121 124.063 147.223 124.675C147.325 125.287 147.529 125.899 147.835 126.511C148.141 127.124 148.549 127.634 149.059 128.144C149.569 128.654 150.182 129.062 150.998 129.47C151.712 129.878 152.63 130.184 153.65 130.388C154.671 130.592 155.895 130.694 157.221 130.694C159.262 130.694 160.894 130.49 162.221 129.98C163.547 129.47 164.567 128.96 165.281 128.144C165.996 127.43 166.608 126.613 166.914 125.593C167.22 124.777 167.322 123.859 167.322 122.839Z" fill="#EDB500"/>
<path d="M203.643 135.387L186.707 118.145V135.387H179.973V110.289H187.319L204.255 127.633V110.289H210.989V135.387H203.643Z" fill="#EDB500"/>
<path d="M218.437 135.387V110.289H243.841V115.594H225.374V119.777H242.821V125.083H225.374V129.98H244.045V135.285H218.437V135.387Z" fill="#EDB500"/>
<path d="M273.428 117.431C272.918 117.227 272.306 116.921 271.592 116.615C270.878 116.309 269.959 116.003 268.939 115.799C267.919 115.493 266.899 115.289 265.776 115.187C264.654 114.983 263.43 114.88 262.205 114.88C261.185 114.88 260.369 114.88 259.757 114.983C259.043 115.085 258.533 115.085 258.022 115.187C257.512 115.289 257.206 115.391 256.9 115.493C256.594 115.595 256.39 115.799 256.288 115.901C256.186 116.003 256.084 116.207 255.982 116.309C255.982 116.411 255.88 116.615 255.88 116.717C255.88 117.125 256.084 117.431 256.39 117.635C256.798 117.941 257.206 118.145 257.92 118.349C258.533 118.553 259.247 118.757 260.165 118.962C260.981 119.166 261.899 119.37 262.818 119.574C263.736 119.778 264.756 119.982 265.776 120.186C266.797 120.39 267.715 120.696 268.735 121.002C269.653 121.308 270.572 121.716 271.388 122.124C272.204 122.532 272.918 123.043 273.632 123.553C274.244 124.063 274.755 124.777 275.163 125.491C275.571 126.205 275.673 127.022 275.673 128.042C275.673 129.266 275.469 130.286 275.061 131.103C274.653 131.919 274.04 132.735 273.326 133.245C272.612 133.857 271.796 134.367 270.878 134.673C269.959 135.082 268.939 135.286 267.919 135.49C266.899 135.694 265.878 135.796 264.756 135.898C263.736 136 262.716 136 261.797 136C259.349 136 257.002 135.796 254.86 135.388C252.717 134.98 250.881 134.469 249.248 133.857V127.838C250.881 128.756 252.819 129.47 254.962 129.98C257.104 130.49 259.349 130.796 261.797 130.796C263.226 130.796 264.45 130.694 265.266 130.592C266.184 130.49 266.899 130.286 267.409 129.98C267.919 129.776 268.225 129.47 268.429 129.164C268.633 128.858 268.735 128.654 268.735 128.348C268.735 127.94 268.531 127.634 268.225 127.328C267.817 127.022 267.409 126.817 266.695 126.511C266.082 126.307 265.368 126.103 264.45 125.899C263.634 125.695 262.716 125.491 261.797 125.287C260.879 125.083 259.859 124.879 258.839 124.675C257.818 124.471 256.9 124.165 255.88 123.859C254.962 123.553 254.043 123.247 253.227 122.838C252.411 122.43 251.697 122.022 250.983 121.41C250.268 120.798 249.86 120.288 249.452 119.574C249.044 118.859 248.942 118.043 248.942 117.125C248.942 116.003 249.146 115.085 249.554 114.268C249.962 113.452 250.473 112.738 251.085 112.228C251.697 111.616 252.513 111.208 253.431 110.799C254.349 110.493 255.166 110.187 256.186 109.983C257.104 109.779 258.124 109.677 259.145 109.575C260.165 109.473 261.083 109.473 262.001 109.473C263.022 109.473 263.94 109.473 264.96 109.575C265.98 109.677 267.001 109.779 268.021 109.983C269.041 110.187 269.959 110.391 270.878 110.595C271.796 110.799 272.714 111.106 273.428 111.31V117.431V117.431Z" fill="#EDB500"/>
</svg>
