<svg width="200" height="200" viewBox="0 0 200 200" fill="none" xmlns="http://www.w3.org/2000/svg">
<g clip-path="url(#clip0_41_2014)">
<rect width="200" height="200" rx="100" fill="url(#paint0_linear_41_2014)"/>
<rect x="14.0259" y="14.0259" width="171.948" height="171.948" rx="85.9741" fill="url(#paint1_linear_41_2014)" stroke="#131313" stroke-width="4.16667" stroke-linecap="round" stroke-dasharray="900 100"/>
<path d="M70.9082 148.778V137.208Lnan nanL70.9082 137.208C100.505 121.222 100.505 78.7584 70.9082 62.7723Lnan nanL70.9082 62.7723V51.2026L129.675 51.2026V62.7723Lnan nanL129.675 62.7723C100.079 78.7584 100.079 121.222 129.675 137.208Lnan nanL129.675 137.208V148.778H70.9082Z" fill="#C6F65F"/>
<path d="M70.8286 62.6876V51.1592H129.805V62.6876C122.425 66.2929 107.664 78.8095 107.664 100.033C107.664 121.256 122.289 133.569 129.601 137.072V148.704H71.0328V137.072C78.5154 133.535 93.4807 121.175 93.4807 100.033C93.4807 78.8911 78.3793 66.327 70.8286 62.6876Z" stroke="#131313" stroke-width="8.33333"/>
<path d="M71.0386 148.727V137.157C100.635 121.171 100.635 78.7074 71.0386 62.7212V51.1516L129.805 51.1516V62.7212C100.209 78.7074 100.209 121.171 129.805 137.157V148.727H71.0386Z" fill="#D0FE85"/>
<mask id="mask0_41_2014" style="mask-type:alpha" maskUnits="userSpaceOnUse" x="71" y="51" width="59" height="98">
<path d="M71.0347 148.727V137.157C100.631 121.171 100.631 78.7074 71.0347 62.7212V51.1516L129.802 51.1516V62.7212C100.205 78.7074 100.205 121.171 129.802 137.157V148.727H71.0347Z" fill="#FEF988"/>
</mask>
<g mask="url(#mask0_41_2014)">
<g filter="url(#filter0_f_41_2014)">
<ellipse cx="100.182" cy="109.441" rx="34.2147" ry="34.8483" fill="#4BFFFF"/>
</g>
<g filter="url(#filter1_f_41_2014)">
<ellipse cx="99.5484" cy="91.0675" rx="18.3745" ry="19.0081" fill="#AEFF2B"/>
</g>
</g>
</g>
<defs>
<filter id="filter0_f_41_2014" x="27.9673" y="36.593" width="144.429" height="145.697" filterUnits="userSpaceOnUse" color-interpolation-filters="sRGB">
<feFlood flood-opacity="0" result="BackgroundImageFix"/>
<feBlend mode="normal" in="SourceGraphic" in2="BackgroundImageFix" result="shape"/>
<feGaussianBlur stdDeviation="19" result="effect1_foregroundBlur_41_2014"/>
</filter>
<filter id="filter1_f_41_2014" x="55.7453" y="46.6308" width="87.6062" height="88.8735" filterUnits="userSpaceOnUse" color-interpolation-filters="sRGB">
<feFlood flood-opacity="0" result="BackgroundImageFix"/>
<feBlend mode="normal" in="SourceGraphic" in2="BackgroundImageFix" result="shape"/>
<feGaussianBlur stdDeviation="12.7143" result="effect1_foregroundBlur_41_2014"/>
</filter>
<linearGradient id="paint0_linear_41_2014" x1="12.5" y1="25" x2="106.752" y2="211.466" gradientUnits="userSpaceOnUse">
<stop stop-color="#EBFF00"/>
<stop offset="1" stop-color="#C3FF61"/>
</linearGradient>
<linearGradient id="paint1_linear_41_2014" x1="24.7726" y1="35.5194" x2="105.805" y2="195.832" gradientUnits="userSpaceOnUse">
<stop stop-color="#EBFF00"/>
<stop offset="1" stop-color="#C3FF61"/>
</linearGradient>
<clipPath id="clip0_41_2014">
<rect width="200" height="200" fill="white"/>
</clipPath>
</defs>
</svg>
